<svg width="54" height="52" viewBox="0 0 54 52" fill="none" xmlns="http://www.w3.org/2000/svg">
<mask id="mask0_67_802" style="mask-type:luminance" maskUnits="userSpaceOnUse" x="0" y="0" width="54" height="52">
<path d="M54 0H0V52H54V0Z" fill="white"/>
</mask>
<g mask="url(#mask0_67_802)">
<path d="M54 0H0V52H54V0Z" fill="white"/>
<path d="M54 0H0V52H54V0Z" fill="url(#paint0_linear_67_802)"/>
<path opacity="0.3" d="M26.0873 -30.3414L-31.9482 25.5447L-2.32978 54.0662L55.7057 -1.81988L26.0873 -30.3414Z" fill="url(#paint1_linear_67_802)"/>
<path opacity="0.3" d="M17.5218 -38.5894L-40.5137 17.2966L-9.96666 46.7123L48.0688 -9.17377L17.5218 -38.5894Z" fill="url(#paint2_linear_67_802)"/>
<path opacity="0.3" d="M17.5218 -38.5894L-40.5137 17.2966L-17.6034 39.3584L40.4321 -16.5277L17.5218 -38.5894Z" fill="url(#paint3_linear_67_802)"/>
</g>
<defs>
<linearGradient id="paint0_linear_67_802" x1="54" y1="52" x2="2.03701" y2="-1.96157" gradientUnits="userSpaceOnUse">
<stop stop-color="#4FA0FF"/>
<stop offset="1" stop-color="#83F8FF"/>
</linearGradient>
<linearGradient id="paint1_linear_67_802" x1="55.7059" y1="-1.81981" x2="-17.8886" y2="-25.0255" gradientUnits="userSpaceOnUse">
<stop stop-color="white" stop-opacity="0.6"/>
<stop offset="1" stop-color="white" stop-opacity="0"/>
</linearGradient>
<linearGradient id="paint2_linear_67_802" x1="48.0689" y1="-9.17376" x2="-27.6331" y2="-31.9374" gradientUnits="userSpaceOnUse">
<stop stop-color="white" stop-opacity="0.6"/>
<stop offset="1" stop-color="white" stop-opacity="0"/>
</linearGradient>
<linearGradient id="paint3_linear_67_802" x1="40.4321" y1="-16.5277" x2="-16.8589" y2="-41.2324" gradientUnits="userSpaceOnUse">
<stop stop-color="white" stop-opacity="0.6"/>
<stop offset="1" stop-color="white" stop-opacity="0"/>
</linearGradient>
</defs>
</svg>
