<svg width="44" height="44" viewBox="0 0 44 44" fill="none" xmlns="http://www.w3.org/2000/svg">
<mask id="mask0_58_756" style="mask-type:luminance" maskUnits="userSpaceOnUse" x="0" y="0" width="44" height="44">
<path d="M44 0H0V44H44V0Z" fill="white"/>
</mask>
<g mask="url(#mask0_58_756)">
<path d="M44 0H0V44H44V0Z" fill="white"/>
<path d="M44 0H0V44H44V0Z" fill="url(#paint0_linear_58_756)"/>
<path opacity="0.3" d="M21.2562 -25.6734L-26.032 21.6147L-1.89842 45.7483L45.3898 -1.53988L21.2562 -25.6734Z" fill="url(#paint1_linear_58_756)"/>
<path opacity="0.3" d="M14.2771 -32.6525L-33.0111 14.6357L-8.12095 39.5258L39.1672 -7.76235L14.2771 -32.6525Z" fill="url(#paint2_linear_58_756)"/>
<path opacity="0.3" d="M14.2771 -32.6525L-33.0111 14.6357L-14.3435 33.3033L32.9447 -13.9849L14.2771 -32.6525Z" fill="url(#paint3_linear_58_756)"/>
</g>
<defs>
<linearGradient id="paint0_linear_58_756" x1="44" y1="44" x2="0" y2="0" gradientUnits="userSpaceOnUse">
<stop stop-color="#FF4FB9"/>
<stop offset="1" stop-color="#B283FF"/>
</linearGradient>
<linearGradient id="paint1_linear_58_756" x1="45.3899" y1="-1.53982" x2="-14.9728" y2="-19.8683" gradientUnits="userSpaceOnUse">
<stop stop-color="white" stop-opacity="0.6"/>
<stop offset="1" stop-color="white" stop-opacity="0"/>
</linearGradient>
<linearGradient id="paint2_linear_58_756" x1="39.1673" y1="-7.76235" x2="-22.89" y2="-25.7319" gradientUnits="userSpaceOnUse">
<stop stop-color="white" stop-opacity="0.6"/>
<stop offset="1" stop-color="white" stop-opacity="0"/>
</linearGradient>
<linearGradient id="paint3_linear_58_756" x1="32.9447" y1="-13.9849" x2="-14.2751" y2="-33.5926" gradientUnits="userSpaceOnUse">
<stop stop-color="white" stop-opacity="0.6"/>
<stop offset="1" stop-color="white" stop-opacity="0"/>
</linearGradient>
</defs>
</svg>
