<svg width="17" height="17" viewBox="0 0 17 17" fill="none" xmlns="http://www.w3.org/2000/svg">
<g clip-path="url(#clip0_67_869)">
<path d="M12.0417 2.12501C12.2278 1.93897 12.4486 1.7914 12.6917 1.69071C12.9348 1.59003 13.1953 1.53821 13.4584 1.53821C13.7215 1.53821 13.982 1.59003 14.2251 1.69071C14.4682 1.7914 14.689 1.93897 14.8751 2.12501C15.0611 2.31105 15.2087 2.53191 15.3094 2.77498C15.4101 3.01805 15.4619 3.27858 15.4619 3.54168C15.4619 3.80478 15.4101 4.0653 15.3094 4.30837C15.2087 4.55144 15.0611 4.7723 14.8751 4.95834L5.31258 14.5208L1.41675 15.5833L2.47925 11.6875L12.0417 2.12501Z" stroke="black" stroke-opacity="0.2" stroke-width="2" stroke-linecap="round" stroke-linejoin="round"/>
</g>
<defs>
<clipPath id="clip0_67_869">
<rect width="17" height="17" fill="white"/>
</clipPath>
</defs>
</svg>
