<svg width="35" height="35" viewBox="0 0 35 35" fill="none" xmlns="http://www.w3.org/2000/svg">
<path fill-rule="evenodd" clip-rule="evenodd" d="M17.5 3C9.49187 3 3 9.49187 3 17.5C3 25.5081 9.49187 32 17.5 32C25.5081 32 32 25.5081 32 17.5C32 9.49187 25.5081 3 17.5 3ZM0 17.5C0 7.83502 7.83502 0 17.5 0C27.165 0 35 7.83502 35 17.5C35 27.165 27.165 35 17.5 35C7.83502 35 0 27.165 0 17.5ZM17.5 9.60004C18.3284 9.60004 19 10.2716 19 11.1V16H23.9C24.7285 16 25.4 16.6716 25.4 17.5C25.4 18.3284 24.7285 19 23.9 19H19V23.9C19 24.7285 18.3284 25.4 17.5 25.4C16.6716 25.4 16 24.7285 16 23.9V19H11.1C10.2716 19 9.60004 18.3284 9.60004 17.5C9.60004 16.6716 10.2716 16 11.1 16H16V11.1C16 10.2716 16.6716 9.60004 17.5 9.60004Z" fill="#383838"/>
</svg>
