<svg width="34" height="28" viewBox="0 0 34 28" fill="none" xmlns="http://www.w3.org/2000/svg">
<path fill-rule="evenodd" clip-rule="evenodd" d="M3.60667 3.51173C3.88105 3.26326 4.24279 3.11111 4.63642 3.11111H29.3635C29.7571 3.11111 30.1189 3.26327 30.3933 3.51176L17 12.6568L3.60667 3.51173ZM3.09098 6.92053V23.3333C3.09098 24.1853 3.78996 24.8889 4.63642 24.8889H29.3635C30.21 24.8889 30.9089 24.1853 30.9089 23.3333V6.92058L17.8862 15.83C17.3541 16.2049 16.6459 16.2049 16.1137 15.83L3.09098 6.92053ZM4.63642 0C2.08291 0 9.76987e-05 2.09645 9.76987e-05 4.66667V23.3333C9.76987e-05 25.9036 2.08291 28 4.63642 28H29.3635C31.917 28 33.9998 25.9036 33.9998 23.3333V4.66667C33.9998 2.09645 31.917 0 29.3635 0H4.63642Z" fill="#383838"/>
</svg>
