<svg width="24" height="24" viewBox="0 0 24 24" fill="none" xmlns="http://www.w3.org/2000/svg">
<path d="M12 14C12.2833 14 12.521 13.904 12.713 13.712C12.905 13.52 13.0007 13.2827 13 13V11H15C15.2833 11 15.521 10.904 15.713 10.712C15.905 10.52 16.0007 10.2827 16 10C16 9.71667 15.904 9.479 15.712 9.287C15.52 9.095 15.2827 8.99933 15 9H13V7C13 6.71667 12.904 6.479 12.712 6.287C12.52 6.095 12.2827 5.99933 12 6C11.7167 6 11.479 6.096 11.287 6.288C11.095 6.48 10.9993 6.71733 11 7V9H9C8.71667 9 8.479 9.096 8.287 9.288C8.095 9.48 7.99933 9.71733 8 10C8 10.2833 8.096 10.521 8.288 10.713C8.48 10.905 8.71733 11.0007 9 11H11V13C11 13.2833 11.096 13.521 11.288 13.713C11.48 13.905 11.7173 14.0007 12 14ZM12 21.625C11.8667 21.625 11.7333 21.6 11.6 21.55C11.4667 21.5 11.35 21.4333 11.25 21.35C8.81667 19.2 7 17.204 5.8 15.362C4.6 13.52 4 11.7993 4 10.2C4 7.7 4.80433 5.70833 6.413 4.225C8.02167 2.74167 9.884 2 12 2C14.1167 2 15.9793 2.74167 17.588 4.225C19.1967 5.70833 20.0007 7.7 20 10.2C20 11.8 19.4 13.521 18.2 15.363C17 17.205 15.1833 19.2007 12.75 21.35C12.65 21.4333 12.5333 21.5 12.4 21.55C12.2667 21.6 12.1333 21.625 12 21.625Z" fill="#B81631"/>
</svg>
