<svg width="100" height="100" viewBox="0 0 100 100" fill="none" xmlns="http://www.w3.org/2000/svg">
<g filter="url(#filter0_i_13_194)">
<path d="M52.625 8.33331C75.6667 8.33331 94.3333 27.0833 94.3333 50C94.3333 72.9167 75.6667 91.6667 52.625 91.6667C38 91.6667 25.2083 84.0833 17.75 72.625L24.3333 67.4167C30.2083 76.9583 40.6667 83.3333 52.6667 83.3333C61.5072 83.3333 69.9857 79.8214 76.2369 73.5702C82.4881 67.319 86 58.8405 86 50C86 41.1594 82.4881 32.681 76.2369 26.4298C69.9857 20.1785 61.5072 16.6666 52.6667 16.6666C35.6667 16.6666 21.6667 29.4166 19.625 45.8333H31.125L15.5417 61.375L0 45.8333H11.2083C13.2917 24.7916 31.0417 8.33331 52.625 8.33331ZM64.9583 42.6666C67.0417 42.7083 68.75 44.375 68.75 46.5V65.7083C68.75 67.7917 67.0417 69.5417 64.9167 69.5417H41.875C39.75 69.5417 38.0417 67.7917 38.0417 65.7083V46.5C38.0417 44.375 39.75 42.7083 41.8333 42.6666V38.4583C41.8333 32.0833 47.0417 26.9166 53.375 26.9166C59.75 26.9166 64.9583 32.0833 64.9583 38.4583V42.6666ZM53.375 32.75C50.25 32.75 47.6667 35.2916 47.6667 38.4583V42.6666H59.125V38.4583C59.125 35.2916 56.5417 32.75 53.375 32.75Z" fill="#B81631"/>
</g>
<defs>
<filter id="filter0_i_13_194" x="0" y="0" width="100" height="104" filterUnits="userSpaceOnUse" color-interpolation-filters="sRGB">
<feFlood flood-opacity="0" result="BackgroundImageFix"/>
<feBlend mode="normal" in="SourceGraphic" in2="BackgroundImageFix" result="shape"/>
<feColorMatrix in="SourceAlpha" type="matrix" values="0 0 0 0 0 0 0 0 0 0 0 0 0 0 0 0 0 0 127 0" result="hardAlpha"/>
<feOffset dy="4"/>
<feGaussianBlur stdDeviation="2"/>
<feComposite in2="hardAlpha" operator="arithmetic" k2="-1" k3="1"/>
<feColorMatrix type="matrix" values="0 0 0 0 0 0 0 0 0 0 0 0 0 0 0 0 0 0 0.25 0"/>
<feBlend mode="normal" in2="shape" result="effect1_innerShadow_13_194"/>
</filter>
</defs>
</svg>
