<svg width="398" height="104" viewBox="0 0 398 104" fill="none" xmlns="http://www.w3.org/2000/svg">
<g filter="url(#filter0_d_67_852)">
<rect x="20" y="16" width="358" height="64" rx="32" fill="white"/>
</g>
<path d="M318 57V55C318 53.9391 317.579 52.9217 316.828 52.1716C316.078 51.4214 315.061 51 314 51H306C304.939 51 303.922 51.4214 303.172 52.1716C302.421 52.9217 302 53.9391 302 55V57" stroke="black" stroke-width="2" stroke-linecap="round" stroke-linejoin="round"/>
<path d="M310 47C312.209 47 314 45.2091 314 43C314 40.7909 312.209 39 310 39C307.791 39 306 40.7909 306 43C306 45.2091 307.791 47 310 47Z" stroke="black" stroke-width="2" stroke-linecap="round" stroke-linejoin="round"/>
<path d="M324 57V55C323.999 54.1137 323.704 53.2528 323.161 52.5523C322.618 51.8519 321.858 51.3516 321 51.13" stroke="black" stroke-width="2" stroke-linecap="round" stroke-linejoin="round"/>
<path d="M317 39.13C317.86 39.3503 318.623 39.8507 319.168 40.5523C319.712 41.2539 320.008 42.1168 320.008 43.005C320.008 43.8932 319.712 44.7561 319.168 45.4577C318.623 46.1593 317.86 46.6597 317 46.88" stroke="black" stroke-width="2" stroke-linecap="round" stroke-linejoin="round"/>
<g filter="url(#filter1_d_67_852)">
<rect x="159" y="24" width="80" height="48" rx="24" fill="#B81631"/>
</g>
<path d="M190 45L199 38L208 45V56C208 56.5304 207.789 57.0391 207.414 57.4142C207.039 57.7893 206.53 58 206 58H192C191.47 58 190.961 57.7893 190.586 57.4142C190.211 57.0391 190 56.5304 190 56V45Z" stroke="white" stroke-width="2" stroke-linecap="round" stroke-linejoin="round"/>
<path d="M196 58V48H202V58" stroke="white" stroke-width="2" stroke-linecap="round" stroke-linejoin="round"/>
<path fill-rule="evenodd" clip-rule="evenodd" d="M108.303 37.0198C108.303 36.4566 107.815 36 107.212 36C106.61 36 106.121 36.4566 106.121 37.0198V38.3796H98.6061V37.0198C98.6061 36.4566 98.1177 36 97.5152 36C96.9127 36 96.4243 36.4566 96.4243 37.0198V38.3796H93.5152C91.6162 38.3796 90 39.7714 90 41.5751V45.7224V56.8045C90 58.6082 91.6162 60 93.5152 60H110.485C112.384 60 114 58.6082 114 56.8045V45.7224V41.5751C114 39.7714 112.384 38.3796 110.485 38.3796H108.303V37.0198ZM111.818 44.7025V41.5751C111.818 40.9756 111.264 40.4193 110.485 40.4193H108.303V41.3711C108.303 41.9343 107.815 42.3909 107.212 42.3909C106.61 42.3909 106.121 41.9343 106.121 41.3711V40.4193H98.6061V41.3711C98.6061 41.9343 98.1177 42.3909 97.5152 42.3909C96.9127 42.3909 96.4243 41.9343 96.4243 41.3711V40.4193H93.5152C92.7364 40.4193 92.1818 40.9756 92.1818 41.5751V44.7025H111.818ZM92.1818 46.7422H111.818V56.8045C111.818 57.404 111.264 57.9603 110.485 57.9603H93.5152C92.7364 57.9603 92.1818 57.404 92.1818 56.8045V46.7422Z" fill="#383838"/>
<defs>
<filter id="filter0_d_67_852" x="0" y="0" width="398" height="104" filterUnits="userSpaceOnUse" color-interpolation-filters="sRGB">
<feFlood flood-opacity="0" result="BackgroundImageFix"/>
<feColorMatrix in="SourceAlpha" type="matrix" values="0 0 0 0 0 0 0 0 0 0 0 0 0 0 0 0 0 0 127 0" result="hardAlpha"/>
<feOffset dy="4"/>
<feGaussianBlur stdDeviation="10"/>
<feComposite in2="hardAlpha" operator="out"/>
<feColorMatrix type="matrix" values="0 0 0 0 0 0 0 0 0 0 0 0 0 0 0 0 0 0 0.1 0"/>
<feBlend mode="normal" in2="BackgroundImageFix" result="effect1_dropShadow_67_852"/>
<feBlend mode="normal" in="SourceGraphic" in2="effect1_dropShadow_67_852" result="shape"/>
</filter>
<filter id="filter1_d_67_852" x="139" y="8" width="120" height="88" filterUnits="userSpaceOnUse" color-interpolation-filters="sRGB">
<feFlood flood-opacity="0" result="BackgroundImageFix"/>
<feColorMatrix in="SourceAlpha" type="matrix" values="0 0 0 0 0 0 0 0 0 0 0 0 0 0 0 0 0 0 127 0" result="hardAlpha"/>
<feOffset dy="4"/>
<feGaussianBlur stdDeviation="10"/>
<feComposite in2="hardAlpha" operator="out"/>
<feColorMatrix type="matrix" values="0 0 0 0 0 0 0 0 0 0 0 0 0 0 0 0 0 0 0.1 0"/>
<feBlend mode="normal" in2="BackgroundImageFix" result="effect1_dropShadow_67_852"/>
<feBlend mode="normal" in="SourceGraphic" in2="effect1_dropShadow_67_852" result="shape"/>
</filter>
</defs>
</svg>
