<svg width="123" height="97" viewBox="0 0 123 97" fill="none" xmlns="http://www.w3.org/2000/svg">
<g clip-path="url(#clip0_320_70)">
<path d="M123 72.8886L113.152 66.0388C113.152 66.0388 107.511 56.9058 106.555 51.0606C105.599 45.2154 101.296 34.8037 101.296 34.8037V29.3238C101.296 29.3238 96.3246 27.4972 95.9422 32.5204C95.5597 37.5436 96.9939 44.0281 96.9939 44.0281C96.9939 44.0281 98.4281 52.2479 95.1773 54.3485L83.3215 72.8886C83.3215 72.8886 94.6992 82.8437 103.591 84.1223L123 97V72.8886Z" fill="#FFDAB9"/>
<path d="M71.8003 46.631H71.4757C68.5508 46.631 66.9067 49.9295 68.8286 52.0356C69.4472 52.7135 70.3874 53.1828 71.8003 53.2069V46.631Z" fill="#FFDAB9"/>
<path d="M71.8003 53.2068H71.4757C68.5508 53.2068 66.9067 56.5053 68.8286 58.6114C69.4472 59.2893 70.3874 59.7586 71.8003 59.7827V53.2068Z" fill="#FFDAB9"/>
<path d="M71.8003 59.7827H71.4757C68.5508 59.7827 66.9067 63.0811 68.8286 65.1872C69.4472 65.8651 70.3874 66.3344 71.8003 66.3585V59.7827Z" fill="#FFDAB9"/>
<path d="M71.8003 66.3585H71.4757C68.5508 66.3585 66.9067 69.657 68.8286 71.7631C69.4472 72.4409 70.3874 72.9102 71.8003 72.9343V66.3585Z" fill="#FFDAB9"/>
<path d="M97.185 45.061H96.9005V37.6149C96.9005 37.0489 96.7838 36.4885 96.557 35.9657C96.3303 35.4428 95.998 34.9677 95.5791 34.5675C95.1601 34.1674 94.6628 33.8499 94.1154 33.6333C93.568 33.4168 92.9814 33.3053 92.3889 33.3053H75.8741C75.2816 33.3053 74.695 33.4168 74.1476 33.6333C73.6002 33.8499 73.1029 34.1674 72.684 34.5675C72.265 34.9677 71.9327 35.4428 71.706 35.9657C71.4792 36.4885 71.3625 37.0489 71.3625 37.6149V78.4646C71.3625 79.0305 71.4792 79.5909 71.706 80.1138C71.9327 80.6367 72.265 81.1117 72.684 81.5119C73.1029 81.9121 73.6002 82.2296 74.1476 82.4461C74.695 82.6627 75.2816 82.7742 75.8741 82.7742H92.3889C92.9814 82.7742 93.568 82.6627 94.1154 82.4461C94.6628 82.2296 95.1601 81.9121 95.5791 81.5119C95.998 81.1117 96.3303 80.6367 96.557 80.1138C96.7838 79.5909 96.9005 79.0305 96.9005 78.4646V50.3612H97.185V45.061Z" fill="#333333"/>
<path d="M95.9401 37.645V78.4343C95.9393 78.9113 95.828 79.3823 95.6141 79.8134C95.4002 80.2445 95.089 80.625 94.7029 80.9276C94.6175 80.9945 94.5284 81.057 94.4361 81.1148C93.8838 81.4665 93.2346 81.6538 92.5708 81.6528H75.9765C75.7075 81.6532 75.4394 81.6226 75.1782 81.5615C74.4449 81.3906 73.7928 80.9895 73.3266 80.4225C72.8604 79.8554 72.6071 79.1553 72.6072 78.4343V37.645C72.6073 36.7914 72.9623 35.9728 73.5941 35.3693C74.226 34.7657 75.0829 34.4266 75.9765 34.4265H77.9901C77.8909 34.6587 77.8531 34.9105 77.8799 35.1599C77.9067 35.4093 77.9972 35.6486 78.1437 35.8567C78.2901 36.0648 78.4878 36.2353 78.7195 36.3531C78.9511 36.471 79.2096 36.5326 79.472 36.5326H88.9328C89.1951 36.5323 89.4534 36.4705 89.6849 36.3526C89.9165 36.2347 90.1141 36.0642 90.2605 35.8563C90.407 35.6483 90.4977 35.4092 90.5248 35.1599C90.5518 34.9106 90.5144 34.6587 90.4157 34.4265H92.5708C93.4643 34.4266 94.3213 34.7657 94.9531 35.3693C95.585 35.9728 95.94 36.7914 95.9401 37.645Z" fill="#89F9D7"/>
<path d="M101.918 80.6517C105.905 80.6517 109.136 73.7413 109.136 65.2168C109.136 56.6924 105.905 49.7819 101.918 49.7819C97.9311 49.7819 94.6992 56.6924 94.6992 65.2168C94.6992 73.7413 97.9311 80.6517 101.918 80.6517Z" fill="#FFDAB9"/>
<path d="M76.4877 48.04H75.8306V43.96H80.1018V44.5877H76.4877V48.04Z" fill="#1A535C"/>
<path d="M92.2582 48.04H92.9153V43.96H88.6441V44.5877H92.2582V48.04Z" fill="#1A535C"/>
<g clip-path="url(#clip1_320_70)">
<path d="M90.2763 69.8H77.7576V46H90.2764V69.8H90.2763Z" fill="#FE938C"/>
<path d="M90.2762 69.8H84.0168V46H90.2762V69.8H90.2762Z" fill="#FF6B6B"/>
<path d="M79.8644 50.76H79.0339V65.04H79.8644V50.76Z" fill="#0E1111"/>
</g>
<path d="M76.4877 67.76H75.8306V71.84H80.1018V71.2123H76.4877V67.76Z" fill="#1A535C"/>
<path d="M91.5465 67.76H92.2036V71.84H87.9324V71.2123H91.5465V67.76Z" fill="#1A535C"/>
</g>
<path d="M49.4959 96.5387H0V0H49.4963V96.5387H49.4959Z" fill="#FE938C"/>
<path d="M49.4959 96.5387H24.748V0H49.4961V96.5387H49.4959Z" fill="#FF6B6B"/>
<path d="M8.3305 19.3077H5.04688V77.231H8.3305V19.3077Z" fill="#0E1111"/>
<g clip-path="url(#clip2_320_70)">
<path d="M42.7502 53.1785C41.5932 54.9746 41.3901 57.4121 42.4808 61.3432C43.4656 65.534 44.0969 66.9313 42.8296 68.7663C42.207 69.4713 41.2046 69.724 39.7608 69.5353C37.4071 69.0975 35.142 67.9146 32.6294 65.8133C31.3224 64.6405 30.2007 63.5525 29.7503 62.1159C29.4678 61.0149 30.3331 61.1178 30.4568 61.2511C30.4568 61.3916 30.479 61.6278 30.5981 61.8103C30.7129 61.9584 31.0839 62.3651 31.5829 62.3869C32.3467 62.4184 32.1877 61.6279 31.7683 61.287C31.2957 60.9194 30.3907 60.3763 29.5472 60.8035C29.2469 60.9826 29.0394 61.292 28.9688 61.6762C28.8936 62.9916 29.5207 64.2167 30.214 65.3474C31.9317 67.8202 34.3118 69.7982 36.9172 70.9174C38.4891 71.5627 40.7409 72.1462 42.5736 71.2715C43.8453 70.5948 44.5207 69.19 44.3795 67.5139C44.256 66.3383 43.8761 64.9169 43.6467 63.9608C43.4168 63.0047 41.7346 58.111 44.6625 56.503C44.6625 56.503 43.6245 55.9683 43.6024 54.632C43.501 53.5334 43.9204 51.9485 44.7681 50.7943C44.1898 51.1789 43.3375 52.269 42.7502 53.1785Z" fill="#FFFCFB"/>
<path d="M32.9251 60.8442C32.3246 61.7595 33.4727 63.5992 35.442 65.0727C37.2085 66.4201 39.2616 67.002 40.211 66.3687C41.3281 65.4269 39.7032 63.6782 38.8334 62.9347L38.7318 62.8387C38.1886 62.333 37.5351 61.9424 36.9079 61.5642C36.9079 61.5642 36.3339 61.2167 36.3073 61.2001C36.2677 60.9853 36.2059 60.7266 36.122 60.435C36.1351 60.4392 38.003 61.5505 38.9302 61.4371C39.213 61.4018 40.2463 61.4287 40.5597 60.4199C40.7851 59.0754 39.7428 58.0018 38.8155 57.0546C38.8155 57.0546 38.6611 56.8932 38.573 56.8019C38.6654 56.825 38.7888 56.8551 38.7888 56.8551C40.1577 57.2488 40.445 56.7182 40.5509 56.3863C40.8426 55.3832 39.3853 54.1848 39.3853 54.1809C39.8443 54.212 40.224 54.3028 40.5288 53.8189C40.6923 53.3622 40.443 52.9 40.2089 52.5486C39.317 51.283 37.921 50.2635 36.7143 49.44V49.9653C36.7143 49.9715 38.584 51.2614 38.9904 52.0991C38.9904 52.1004 39.0686 52.2529 39.0067 52.3407C38.914 52.4495 38.7211 52.4066 38.5845 52.3394C38.5756 52.3352 32.9734 49.1051 32.9734 49.1051V50.6302C32.9734 50.6302 33.2429 50.7968 33.2606 50.8104C33.2518 50.8206 33.2055 50.8451 33.1833 50.8619C31.8763 51.8068 33.8867 53.9465 36.2181 55.5575C37.1146 56.1777 38.1239 56.9673 38.8525 57.7861C38.8525 57.7861 39.9644 58.9991 39.1655 59.5173C38.8299 59.7068 38.3392 59.6485 38.0169 59.5416C36.2991 58.9382 34.7402 57.8984 33.7996 56.7151C33.5393 56.3812 33.464 56.0181 33.5744 55.838C33.6761 55.6663 33.9276 55.6386 34.0998 55.7472C34.091 56.0227 34.1748 56.2436 34.3603 56.423C34.7312 56.7766 35.0889 56.8994 35.4246 56.787C36.2017 56.2409 34.665 55.1518 33.7289 55.2044C33.3932 55.2233 33.0754 55.4023 32.9207 55.6696C32.6824 56.0679 32.7441 56.6754 32.9341 57.0687C33.1327 57.5951 33.8259 58.4283 34.3647 58.9147C35.0404 59.527 35.791 60.5771 35.707 60.9055C35.4199 60.7981 33.6051 59.9111 32.9251 60.8442ZM35.6099 53.4915C35.1993 53.1949 34.0997 52.3314 33.9143 52.1209C33.2915 51.4129 33.5655 51.1299 33.7597 51.1054C34.943 51.7662 36.2988 52.546 37.5176 53.2792C37.5132 53.2777 37.8664 53.5087 37.8664 53.5087C38.3608 53.8325 38.7847 54.1586 39.0805 54.6904C39.1028 54.7663 39.1117 54.8913 39.0496 54.9745C38.9833 55.0747 38.8729 55.1142 38.7581 55.1029C38.3784 55.071 37.2173 54.6845 35.6099 53.4915ZM36.3208 61.7881C36.3208 61.7881 36.3607 61.8015 36.3737 61.808C36.3737 61.8097 37.4554 62.473 37.4554 62.473C37.9898 62.8732 38.6612 63.373 38.9834 63.9977C39.0452 64.1829 39.085 64.4389 38.9218 64.5694C38.5905 64.8459 38.1312 64.7034 37.7604 64.5876L37.6279 64.5465C36.7272 64.2146 35.9322 63.6879 35.1948 63.1752C35.1904 63.1688 35.186 63.1544 35.186 63.1492C35.1904 63.1479 35.1904 63.1459 35.1993 63.145C35.8174 62.8233 36.1043 62.2201 36.237 61.769C36.237 61.7662 36.2414 61.7633 36.2502 61.7633C36.2634 61.7632 36.2812 61.7706 36.3208 61.7881ZM35.0448 61.1598C35.0536 61.1627 35.7248 61.4552 35.7248 61.4552C35.7601 61.4975 35.7425 61.5643 35.7248 61.641L35.7026 61.7723C35.5746 62.1845 35.3008 62.4955 34.9741 62.5914C34.3382 62.7236 33.8392 62.1804 33.6582 61.9411C33.4991 61.7114 33.4153 61.3544 33.5787 61.1471C33.7289 61.0193 33.9231 60.9708 34.1352 60.9708C34.4221 60.9708 34.7444 61.0593 35.0448 61.1598ZM37.0935 41.8798C36.7757 42.0269 36.5725 42.376 36.5945 42.748C36.705 43.9561 37.6985 45.1378 39.1247 45.7583C39.8578 46.0839 40.4627 46.2616 41.4253 46.3781C40.9926 46.0024 40.2818 45.2361 39.8931 44.3665C39.8931 44.3665 38.9703 44.2482 38.1489 43.6448C37.8088 43.4165 37.2613 42.9596 37.407 42.4466C37.5571 41.9983 38.798 42.1559 39.9988 42.7517C40.8821 43.1925 41.7655 43.8671 42.3747 44.5496C42.8869 45.153 43.5051 46.0458 43.0283 46.8269C42.737 47.3189 42.1274 47.5699 41.3415 47.5169C39.1116 47.2818 37.2128 46.2667 35.0491 44.8141C33.04 43.3163 30.9778 41.6652 29.8781 39.4411C29.6486 38.9874 29.5956 38.5673 29.7369 38.2041C29.7369 38.2041 30.885 40.292 33.009 41.2872C33.5478 41.5404 34.2762 41.8925 34.921 41.5379C35.2565 41.3526 35.283 41.0237 35.2654 40.7587C34.9827 39.5388 33.8435 38.7506 32.8015 38.1066C32.011 37.7333 31.225 37.4014 30.3507 37.4014C30.2448 37.4014 30.1035 37.4069 29.9974 37.4159C29.6884 36.8331 30.2359 35.6378 30.2359 35.6378C30.5451 34.7039 32.0686 32.7153 32.3599 32.0444C31.9802 31.7172 31.4062 31.1795 31.1192 30.8767L30.8497 31.315C30.4214 32.0167 30.0151 32.7585 29.6133 33.4885C28.7082 35.1465 29.0261 36.4961 29.2734 37.1829C29.3705 37.4528 29.4544 37.6995 29.4544 37.6995C28.898 38.2092 28.9509 39.0452 29.1011 39.6612C29.737 41.8764 31.2868 43.9331 33.9761 46.1381C36.0824 47.7592 37.9018 48.7648 39.6989 49.3008C40.9088 49.7139 42.6883 49.8395 43.7437 48.8311C44.6399 47.9738 44.4457 46.837 44.1235 46.0343C43.2669 44.295 41.421 42.7317 39.2969 41.9527C38.6656 41.7647 37.7736 41.5562 37.0935 41.8798ZM30.4391 37.8803C33.0797 38.1105 34.6298 40.1631 34.7532 40.671C34.815 40.9788 34.6782 41.504 33.57 41.0351C32.0773 40.3447 30.8101 39.1659 30.1609 37.9013C30.2714 37.8704 30.3418 37.8713 30.4391 37.8803ZM30.7746 25.7044C31.4017 26.8085 31.8078 27.9531 31.6666 29.3386C32.0994 29.7225 32.5454 30.0964 33.0046 30.441C33.4991 28.4964 32.3996 26.4349 31.3532 25.2851C30.2978 24.0688 28.9688 23.4451 28.9688 23.4451C28.9688 23.4451 30.0108 24.3568 30.7746 25.7044ZM32.9735 46.5704V48.0188L34.3009 48.8357V47.3877L32.9735 46.5704Z" fill="#FFFCFB"/>
<path d="M42.8731 29.3444C42.9791 29.5001 42.8976 29.7189 42.6548 29.6371C42.0366 29.4333 40.7768 28.6232 40.7768 28.6232L36.7749 26.3669V27.9124C36.8956 27.9859 37.1726 28.1429 37.1726 28.1429C37.0535 28.2144 36.7887 28.4283 36.7315 28.5163C36.4928 28.8939 36.6057 29.4478 36.822 29.83C37.7936 31.4916 39.7132 32.704 41.2102 33.6601C41.2102 33.6601 42.8743 34.6666 42.998 35.2253C43.0334 35.6614 42.4458 35.6164 42.3089 35.5975C41.3196 35.4289 40.3792 35.0372 39.5269 34.6427C38.9706 33.8401 38.242 32.9243 37.4428 32.0919C35.7161 30.2856 33.7599 28.7627 33.3227 28.5401C33.3227 28.5401 33.3714 28.7811 33.3801 29.0655C35.3186 30.4552 38.136 33.299 38.5554 34.1612C37.6367 33.7792 33.252 31.3116 31.1546 29.2117L30.8366 28.8813C30.3376 28.3703 29.8254 27.8409 29.7415 27.4283C29.7371 27.3847 29.7415 27.3286 29.8432 27.2802C30.2317 27.2618 30.5188 27.4064 30.8455 27.5723L31.3225 27.8049C31.3225 27.8049 31.2606 27.4755 31.1898 27.2591C30.7175 27.0082 30.1875 26.7302 29.5562 26.8327C29.353 26.8668 29.1985 27.0139 29.1631 27.2061C29.0439 27.8325 29.5074 28.5152 29.8829 29.0645L29.896 29.0867C32.1083 31.9105 35.2965 34.295 39.6505 36.3797C39.7651 36.5308 39.9022 37.1146 39.8358 37.2138C39.412 37.0079 38.8423 36.7487 38.2241 36.619C38.0473 36.5966 37.8665 36.5757 37.6898 36.5757C37.3098 36.5757 36.9522 36.6669 36.7051 37.0074C36.5063 37.4065 36.5991 37.8999 36.7491 38.2326C37.3673 39.7228 38.8953 40.8365 40.1536 41.6403C40.9531 42.0725 41.8093 42.5035 42.7898 42.6228C43.558 42.7069 44.0527 42.5358 44.3 42.0989C44.5294 41.6498 44.2909 41.0844 44.1762 40.8623C43.3814 39.3526 41.7874 38.2978 40.3301 37.4663C40.3258 37.4333 40.3126 36.9793 40.2242 36.6359C40.2242 36.6313 40.2242 36.6294 40.2288 36.6218C40.2948 36.6415 40.8248 36.8189 40.8248 36.8189C42.3702 37.3459 43.4212 37.5896 44.0438 37.0918C44.9225 36.3805 44.013 35.2029 42.8117 34.2449C44.2512 34.4505 44.4765 33.7045 44.3662 33.1358C44.1897 32.4825 43.4918 31.7546 43.1343 31.4167C43.5537 31.5252 44.3045 31.4958 44.3794 30.9015C44.4547 30.4942 44.2332 30.1893 44.0432 29.8366C43.3543 28.5714 41.0587 27.0569 40.395 26.6637V27.1793C41.2399 27.7383 42.3474 28.4496 42.8731 29.3444ZM42.7194 40.7008C42.6001 40.7811 42.4698 40.8077 42.3288 40.8103C41.4629 40.8257 39.9124 39.8941 39.0677 39.2366V39.2352C39.6711 38.9597 40.0589 38.3357 40.2224 37.9591C41.2646 38.4268 43.4965 40.0314 42.7194 40.7008ZM39.7564 37.695C39.7876 37.7395 39.5225 38.5263 38.7939 38.6784C38.1666 38.8074 37.6765 38.3755 37.4295 37.9576C37.2881 37.7782 37.2397 37.508 37.31 37.3098C37.4339 37.1259 37.6549 37.076 37.8929 37.076C38.0389 37.076 38.1889 37.0954 38.3257 37.1125L38.3568 37.1162C38.8463 37.248 39.3168 37.4425 39.7564 37.695ZM42.4412 31.3839C42.4412 31.3846 42.5737 31.5333 42.5737 31.5333C42.7635 31.7455 42.9666 31.9639 42.865 32.2276C42.8386 32.3004 42.7415 32.3517 42.6662 32.364C42.123 32.376 41.6198 32.1314 41.1296 31.8942L41.0015 31.8334C39.8623 31.1511 38.52 30.358 37.5884 29.1933C37.4468 28.997 37.3278 28.784 37.4206 28.5592C37.4691 28.5075 37.553 28.4473 37.6368 28.4473C37.6634 28.4473 37.734 28.4709 37.756 28.4845C38.2818 28.8098 38.8336 29.1196 39.3635 29.4209C40.41 30.0096 41.4917 30.6204 42.4412 31.3839Z" fill="#FFFCFB"/>
</g>
<defs>
<clipPath id="clip0_320_70">
<rect width="55" height="68" fill="white" transform="translate(68 29)"/>
</clipPath>
<clipPath id="clip1_320_70">
<rect width="24.9154" height="23.8" fill="white" transform="translate(71.5593 46)"/>
</clipPath>
<clipPath id="clip2_320_70">
<rect width="48.2694" height="48.2694" fill="white" transform="matrix(0 -1 1 0 12.7307 71.7145)"/>
</clipPath>
</defs>
</svg>
