<svg width="123" height="77" viewBox="0 0 123 77" fill="none" xmlns="http://www.w3.org/2000/svg">
<g clip-path="url(#clip0_263_55)">
<path d="M94.2997 58.1605C99.3591 45.583 97.8286 31.5388 91.3034 20.7526L22.9983 30.1569L88.4564 16.592C60.8686 -17.6162 7.1729 5.07364 12.3489 48.2639L94.2997 58.1605Z" fill="#E6E6E6"/>
<path fill-rule="evenodd" clip-rule="evenodd" d="M55 7.27273C46.8664 7.27273 40.2727 13.8664 40.2727 22C40.2727 30.1336 46.8664 36.7273 55 36.7273C63.1336 36.7273 69.7273 30.1336 69.7273 22C69.7273 13.8664 63.1336 7.27273 55 7.27273ZM37 22C37 12.0589 45.0589 4 55 4C64.9411 4 73 12.0589 73 22C73 31.9411 64.9411 40 55 40C45.0589 40 37 31.9411 37 22Z" fill="#315EFF"/>
<path fill-rule="evenodd" clip-rule="evenodd" d="M56.4996 16C56.4996 15.1716 55.828 14.5 54.9996 14.5C54.1712 14.5 53.4996 15.1716 53.4996 16V20.4999H49C48.1716 20.4999 47.5 21.1715 47.5 21.9999C47.5 22.8283 48.1716 23.4999 49 23.4999H53.4996V28C53.4996 28.8284 54.1712 29.5 54.9996 29.5C55.828 29.5 56.4996 28.8284 56.4996 28V23.4999H61C61.8284 23.4999 62.5 22.8283 62.5 21.9999C62.5 21.1715 61.8284 20.4999 61 20.4999H56.4996V16Z" fill="#315EFF"/>
<path d="M97.6823 44.2572H10.6606V71.2022H97.6823V44.2572Z" fill="#FFD3A5"/>
<path d="M34.9301 40.9713C35.7109 41.5742 35.9964 41.7688 36.1626 41.7441C44.2185 44.0768 37.1563 46.8105 33.2422 42.1701L34.9301 40.9713Z" fill="#FFB8B8"/>
<path d="M8.34741 65.616V71.0927L12.3129 70.8737L11.2114 65.1779L8.34741 65.616Z" fill="#FFB8B8"/>
<path d="M30.3782 65.616V71.0927L26.4126 70.8737L27.5142 65.1779L30.3782 65.616Z" fill="#FFB8B8"/>
<path d="M18.2612 37.3566L24.2095 37.1376C37.9315 51.442 32.7421 48.1794 32.3609 67.8067L25.0907 65.616L26.6329 52.034C26.6337 52.0335 27.0397 51.7643 26.7022 51.7581C24.5915 52.4794 23.0514 43.5492 18.4815 44.5858C13.2811 44.3384 12.4345 52.0094 10.3301 52.034L11.8723 65.616L4.60209 67.8067C3.78809 46.2383 -0.201331 51.1106 12.7535 37.1376L18.2612 37.3566Z" fill="#2F2E41"/>
<path d="M9.44898 69.3402C9.44898 69.3402 8.56775 67.5877 7.46621 68.4639C6.36467 69.3402 3.72098 71.969 3.72098 71.969C3.72098 71.969 -2.66795 74.8168 1.29759 76.5693C5.26313 78.3219 8.56775 74.1596 8.56775 74.1596C12.3449 73.3764 14.5235 72.875 12.5205 68.7782C11.3832 69.2676 9.7739 69.8341 9.44898 69.3402Z" fill="#2F2E41"/>
<path d="M29.2768 69.3402C29.2768 69.3402 30.158 67.5877 31.2596 68.4639C32.3611 69.3402 35.0048 71.969 35.0048 71.969C35.0048 71.969 41.3937 74.8168 37.4282 76.5693C33.4626 78.3219 30.158 74.1596 30.158 74.1596C26.3809 73.3764 24.2022 72.875 26.2053 68.7782C27.3425 69.2676 28.9519 69.8341 29.2768 69.3402Z" fill="#2F2E41"/>
<path d="M24.2096 12.6023C23.882 18.0557 16.397 17.5756 16.2786 12.6022C16.6062 7.14886 24.0911 7.62898 24.2096 12.6023Z" fill="#FFB8B8"/>
<path d="M18.4817 15.4502C20.409 21.2423 15.8587 18.0889 22.2269 22.6793L24.6503 17.8599C24.6503 17.8599 22.8878 17.2027 23.1082 14.793L18.4817 15.4502Z" fill="#FFB8B8"/>
<path d="M30.3783 18.7361L23.811 17.2456C23.9957 21.1831 19.7698 20.3907 19.0324 18.41L12.7537 22.0221C15.389 31.7821 14.7211 32.1848 11.2115 38.452C9.87208 39.6682 11.8752 40.3653 13.6191 39.6998C14.9491 38.8835 15.6246 38.1581 17.0498 38.3427C23.7841 39.737 29.3904 40.0661 30.2776 39.5213C30.5951 39.0695 30.2684 18.8146 30.3783 18.7361Z" fill="#575A89"/>
<path d="M28.6157 19.1743C28.836 19.1743 29.9709 18.6437 29.9709 18.6437C33.2726 18.5884 35.4882 40.6721 35.6656 41.2999L33.4625 42.8333L29.9376 33.8517L28.6157 19.1743Z" fill="#575A89"/>
<path d="M13.1943 44.8049C13.307 45.6316 13.4987 54.9161 16.8435 50.5791C17.2823 47.415 15.7903 46.4704 15.3974 44.3668L13.1943 44.8049Z" fill="#FFB8B8"/>
<path d="M14.0755 22.0221L13.4004 21.65C11.5907 21.5909 12.1611 26.3543 11.3954 29.8427C10.7699 33.9066 10.948 38.3876 11.6819 44.3786C11.7461 46.577 15.706 45.1921 16.2785 45.024C16.2785 45.024 14.9567 36.0423 15.6176 34.5088C16.2785 32.9754 14.0755 22.0221 14.0755 22.0221Z" fill="#575A89"/>
<path d="M24.0363 8.77976C23.4245 7.79188 22.4669 7.06392 21.3477 6.73598L20.5257 7.38988L20.8453 6.62718C20.5765 6.58641 20.3045 6.57078 20.0328 6.58049L19.2932 7.52605L19.5993 6.61288C16.4257 6.95172 14.548 10.5744 16.1956 13.1098C16.4498 12.3331 16.7583 11.6044 17.0124 10.8278C17.2122 10.8548 17.4146 10.8558 17.6146 10.8307L17.9238 10.1132L18.0102 10.8003C18.9686 10.7173 20.3901 10.535 21.2988 10.368L21.2104 9.84091L21.739 10.2789C22.0174 10.2152 22.1826 10.1574 22.169 10.1132C22.8447 11.1965 23.5143 11.8884 24.19 12.9716C24.4465 11.4437 24.8994 10.1736 24.0363 8.77976Z" fill="#2F2E41"/>
<path d="M92.4737 47.5076H73.2551V56.5727H92.4737V47.5076Z" fill="white"/>
<path d="M88.8394 49.4064H76.8894V50.4933H88.8394V49.4064Z" fill="#E6E6E6"/>
<path d="M88.8394 51.4966H76.8894V52.5836H88.8394V51.4966Z" fill="#E6E6E6"/>
<path d="M88.8394 53.587H76.8894V54.6739H88.8394V53.587Z" fill="#E6E6E6"/>
<path d="M56.5188 49.6609L55.8937 48.5843L55.2686 47.5076L54.6435 48.5843L54.0183 49.6609H54.69V52.7787H55.8471V49.6609H56.5188Z" fill="white"/>
<path d="M98.878 71.8449C101.721 71.8449 104.025 69.5533 104.025 66.7265C104.025 63.8996 101.721 61.608 98.878 61.608C96.0351 61.608 93.7305 63.8996 93.7305 66.7265C93.7305 69.5533 96.0351 71.8449 98.878 71.8449Z" fill="#3F3D56"/>
<path d="M99.814 68.9949C101.074 68.9949 102.095 67.9793 102.095 66.7265C102.095 65.4737 101.074 64.4581 99.814 64.4581C98.5541 64.4581 97.5327 65.4737 97.5327 66.7265C97.5327 67.9793 98.5541 68.9949 99.814 68.9949Z" fill="#E6E6E6"/>
<path d="M95.6315 70.3035L106.862 74.9567L106.511 76.0618L100.048 75.3347L89.1094 70.5071L95.1927 71.2051L95.6315 70.3035Z" fill="#3F3D56"/>
<path d="M105.559 74.747L119.527 29.1857L122.929 23.1791L122.941 23.1211C122.952 23.0681 123.201 21.8126 122.587 20.9034C122.432 20.6774 122.232 20.4855 122 20.3397C121.767 20.194 121.506 20.0974 121.235 20.0561C119.357 19.7061 115.157 19.5337 114.979 19.5265L114.946 19.5251L114.913 19.5297C114.798 19.5452 112.114 19.9354 111.507 22.266L108.587 27.5506L108.575 27.5882L95.3557 70.8042L96.0832 71.0243L109.291 27.8459L112.221 22.5434L112.233 22.4947C112.662 20.7409 114.714 20.3306 114.986 20.2836C115.415 20.3018 119.363 20.4765 121.094 20.7993C121.266 20.8226 121.431 20.8812 121.58 20.9713C121.728 21.0613 121.855 21.181 121.954 21.3226C122.333 21.8801 122.238 22.7008 122.205 22.9166L118.824 28.8864L118.812 28.9258L104.832 74.5265L105.559 74.747Z" fill="#3F3D56"/>
<path d="M107.601 31.92L107.466 32.6641L117.554 34.4758L117.689 33.7318L107.601 31.92Z" fill="#3F3D56"/>
<path d="M105.717 38.1083L105.565 38.8491L115.581 40.8818L115.734 40.141L105.717 38.1083Z" fill="#3F3D56"/>
<path d="M102.363 49.1755L102.153 49.9024L111.932 52.6847L112.141 51.9578L102.363 49.1755Z" fill="#3F3D56"/>
<path d="M108.976 70.6266L109.253 69.9223L99.7616 66.2267L99.2955 61.2086L108.155 64.4988L111.025 68.6281L111.65 68.1983L108.644 63.8734L98.427 60.0787L99.0476 66.7608L108.976 70.6266Z" fill="#3F3D56"/>
<path d="M112.273 76.7307C115.116 76.7307 117.421 74.4391 117.421 71.6122C117.421 68.7854 115.116 66.4938 112.273 66.4938C109.43 66.4938 107.126 68.7854 107.126 71.6122C107.126 74.4391 109.43 76.7307 112.273 76.7307Z" fill="#3F3D56"/>
<path d="M113.619 74.1133C114.879 74.1133 115.9 73.0977 115.9 71.8449C115.9 70.5921 114.879 69.5765 113.619 69.5765C112.359 69.5765 111.337 70.5921 111.337 71.8449C111.337 73.0977 112.359 74.1133 113.619 74.1133Z" fill="#E6E6E6"/>
</g>
<defs>
<clipPath id="clip0_263_55">
<rect width="123" height="77" fill="white"/>
</clipPath>
</defs>
</svg>
